<?xml version="1.0" standalone="no"?>
<!DOCTYPE svg PUBLIC "-//W3C//DTD SVG 20010904//EN"
 "http://www.w3.org/TR/2001/REC-SVG-20010904/DTD/svg10.dtd">
<svg version="1.0" xmlns="http://www.w3.org/2000/svg"
 width="818.000000pt" height="1280.000000pt" viewBox="0 0 818.000000 1280.000000"
 preserveAspectRatio="xMidYMid meet">
<g transform="translate(0.000000,1280.000000) scale(0.100000,-0.100000)"
fill="#000000" stroke="none">
<path d="M3910 12789 c-41 -5 -120 -13 -175 -19 -665 -73 -1306 -365 -1795
-818 -590 -546 -923 -1210 -1021 -2037 -9 -71 -14 -524 -18 -1555 l-6 -1455
-447 -3 -448 -2 0 -3450 0 -3450 4090 0 4090 0 0 3450 0 3450 -447 2 -448 3
-6 1455 c-6 1439 -7 1493 -40 1720 -77 531 -300 1048 -643 1490 -104 134 -391
424 -524 529 -415 327 -910 551 -1420 641 -101 18 -158 25 -394 50 -110 11
-239 11 -348 -1z m478 -1025 c387 -50 792 -230 1097 -486 400 -335 662 -791
757 -1313 l23 -130 0 -1465 0 -1465 -2175 0 -2175 0 -3 1400 c-2 958 0 1435 8
1510 84 846 654 1569 1456 1848 331 115 655 147 1012 101z"/>
</g>
</svg>
